<svg id="Facebook_black" xmlns="http://www.w3.org/2000/svg" width="44.509" height="43.327" viewBox="0 0 44.509 43.327">
  <g id="Facebook" transform="translate(0 0)">
    <path id="Combined-Shape" d="M22.255,43.327a22.638,22.638,0,0,1-8.663-1.7,22.224,22.224,0,0,1-7.074-4.643A21.568,21.568,0,0,1,1.749,30.1a21.2,21.2,0,0,1,0-16.865A21.569,21.569,0,0,1,6.518,6.345,22.224,22.224,0,0,1,13.592,1.7a22.889,22.889,0,0,1,17.325,0,22.223,22.223,0,0,1,7.074,4.643,21.57,21.57,0,0,1,4.769,6.886,21.2,21.2,0,0,1,0,16.865,21.569,21.569,0,0,1-4.769,6.886,22.224,22.224,0,0,1-7.074,4.643A22.636,22.636,0,0,1,22.255,43.327ZM17.061,18.554v4.062h2.5V34.4h5.01V22.615h3.342l.443-4.062H24.574l.006-2.033c0-1.039.077-1.627,1.667-1.627h2.089V10.832H24.993a5.523,5.523,0,0,0-4.22,1.4,5.434,5.434,0,0,0-1.209,3.884v2.439Z" fill="#fff"/>
  </g>
</svg>
