<svg id="Instagram_black" xmlns="http://www.w3.org/2000/svg" width="44.509" height="43.327" viewBox="0 0 44.509 43.327">
  <path id="Combined-Shape" d="M22.255,43.327a22.638,22.638,0,0,1-8.663-1.7,22.224,22.224,0,0,1-7.074-4.643A21.568,21.568,0,0,1,1.749,30.1a21.2,21.2,0,0,1,0-16.865A21.569,21.569,0,0,1,6.518,6.345,22.224,22.224,0,0,1,13.592,1.7a22.889,22.889,0,0,1,17.325,0,22.223,22.223,0,0,1,7.074,4.643,21.57,21.57,0,0,1,4.769,6.886,21.2,21.2,0,0,1,0,16.865,21.569,21.569,0,0,1-4.769,6.886,22.224,22.224,0,0,1-7.074,4.643A22.636,22.636,0,0,1,22.255,43.327Zm0-33.218-.514,0c-2.725,0-3.157.014-4.378.068a8.985,8.985,0,0,0-2.881.537,5.825,5.825,0,0,0-2.1,1.332,5.658,5.658,0,0,0-1.369,2.046,8.291,8.291,0,0,0-.552,2.8c-.058,1.261-.072,1.676-.072,4.765s.014,3.5.072,4.763a8.372,8.372,0,0,0,.552,2.8,5.665,5.665,0,0,0,1.369,2.046,5.843,5.843,0,0,0,2.1,1.334,9,9,0,0,0,2.881.536c1.277.057,1.7.07,4.894.07s3.616-.013,4.893-.07a9,9,0,0,0,2.883-.536,5.841,5.841,0,0,0,2.1-1.334A5.658,5.658,0,0,0,33.5,29.231a8.415,8.415,0,0,0,.552-2.8c.058-1.261.072-1.676.072-4.763s-.014-3.5-.072-4.765a8.4,8.4,0,0,0-.552-2.8,5.654,5.654,0,0,0-1.369-2.047,5.823,5.823,0,0,0-2.1-1.332,9.02,9.02,0,0,0-2.883-.537C25.869,10.123,25.446,10.109,22.254,10.109Z" transform="translate(0 0)" fill="#fff"/>
  <path id="Combined-Shape-2" data-name="Combined-Shape" d="M9.73,18.942c-3.158,0-3.535-.012-4.8-.067a6.739,6.739,0,0,1-2.2-.4,3.692,3.692,0,0,1-1.364-.864,3.561,3.561,0,0,1-.888-1.327,6.23,6.23,0,0,1-.409-2.145C.012,12.926,0,12.562,0,9.469S.012,6.014.068,4.8A6.244,6.244,0,0,1,.477,2.657a3.556,3.556,0,0,1,.888-1.328A3.7,3.7,0,0,1,2.73.463a6.739,6.739,0,0,1,2.2-.4C6.041.017,6.459,0,8.666,0c.1,0,.212,0,.309,0H9.73c3.195,0,3.566.011,4.8.066a6.725,6.725,0,0,1,2.2.4,3.677,3.677,0,0,1,1.364.864,3.588,3.588,0,0,1,.889,1.328A6.277,6.277,0,0,1,19.391,4.8c.056,1.213.068,1.577.068,4.668s-.012,3.455-.068,4.667a6.276,6.276,0,0,1-.409,2.145,3.571,3.571,0,0,1-.889,1.327,3.665,3.665,0,0,1-1.364.864,6.691,6.691,0,0,1-2.2.4C13.266,18.93,12.889,18.942,9.73,18.942Zm0-15.4A6.023,6.023,0,0,0,3.635,9.475,6.022,6.022,0,0,0,9.73,15.407a6.022,6.022,0,0,0,6.095-5.932A6.023,6.023,0,0,0,9.73,3.541ZM16.066,1.92l0,0a1.405,1.405,0,0,0-1.422,1.385,1.425,1.425,0,0,0,2.849,0A1.408,1.408,0,0,0,16.066,1.92Z" transform="translate(12.525 12.189)" fill="#fff"/>
  <path id="Shape" d="M3.956,0A3.9,3.9,0,0,1,7.913,3.851,3.905,3.905,0,0,1,3.956,7.7,3.9,3.9,0,0,1,0,3.851,3.9,3.9,0,0,1,3.956,0Z" transform="translate(18.299 17.812)" fill="#fff"/>
</svg>
